# xmcd
#
# Track frame offsets:
#	150
#	18521
#	45747
#	63101
#	81465
#	91243
#	114430
#	129495
#	144316
#	163032
#	182866
#	209280
#
# Disc length: 2980 seconds
# Revision: 0
# Processed by: cddbd v1.5.2PL0 Copyright (c) Steve Scherf et al.
# Submitted via: dBpowerAMP V12.0
#
DISCID=a00ba20c
DTITLE=Various Artist - Blues Bureau's Rowdy Roadhouse Blues
DYEAR=2010
DGENRE=Blues
TTITLE0=Pat Travers - Party Tonight
TTITLE1=Craig Erickson - Roadhouse Stomp
TTITLE2=Leslie West - Riot In Cell Block #9
TTITLE3=Jon Butcher - High Heel Shoes
TTITLE4=Rick Derringer - Red Hot
TTITLE5=Stoney Curtis Band - That's Right
TTITLE6=Chris Duarte Group - Let's Have A Party
TTITLE7=Pat Travers - Tore Up From The Floor Up
TTITLE8=Leslie West - Baby Please Don't Go
TTITLE9=Eric Gales - Someday
TTITLE10=Rick Derringer - Electra Blues
TTITLE11=Stoney Curtis Band - Baby Needs Lovin'
EXTD=
EXTT0=
EXTT1=
EXTT2=
EXTT3=
EXTT4=
EXTT5=
EXTT6=
EXTT7=
EXTT8=
EXTT9=
EXTT10=
EXTT11=
PLAYORDER=
